<?xml version="1.0" encoding="utf-8" standalone="no"?>
<!DOCTYPE svg PUBLIC "-//W3C//DTD SVG 1.1//EN"
  "http://www.w3.org/Graphics/SVG/1.1/DTD/svg11.dtd">
<svg xmlns:xlink="http://www.w3.org/1999/xlink" width="280.607264pt" height="423.034375pt" viewBox="0 0 280.607264 423.034375" xmlns="http://www.w3.org/2000/svg" version="1.1">
 <metadata>
  <rdf:RDF xmlns:dc="http://purl.org/dc/elements/1.1/" xmlns:cc="http://creativecommons.org/ns#" xmlns:rdf="http://www.w3.org/1999/02/22-rdf-syntax-ns#">
   <cc:Work>
    <dc:type rdf:resource="http://purl.org/dc/dcmitype/StillImage"/>
    <dc:date>2025-05-08T01:01:37.477879</dc:date>
    <dc:format>image/svg+xml</dc:format>
    <dc:creator>
     <cc:Agent>
      <dc:title>Matplotlib v3.9.0, https://matplotlib.org/</dc:title>
     </cc:Agent>
    </dc:creator>
   </cc:Work>
  </rdf:RDF>
 </metadata>
 <defs>
  <style type="text/css">*{stroke-linejoin: round; stroke-linecap: butt}</style>
 </defs>
 <g id="figure_1">
  <g id="patch_1">
   <path d="M 0 423.034375 
L 280.607264 423.034375 
L 280.607264 0 
L 0 0 
z
" style="fill: #ffffff"/>
  </g>
  <g id="axes_1">
   <g id="patch_2">
    <path d="M 52.160938 188.708125 
L 269.064915 188.708125 
L 269.064915 22.318125 
L 52.160938 22.318125 
z
" style="fill: #ffffff"/>
   </g>
   <g id="PathCollection_1">
    <defs>
     <path id="m4992a0c657" d="M 0 3 
C 0.795609 3 1.55874 2.683901 2.12132 2.12132 
C 2.683901 1.55874 3 0.795609 3 0 
C 3 -0.795609 2.683901 -1.55874 2.12132 -2.12132 
C 1.55874 -2.683901 0.795609 -3 0 -3 
C -0.795609 -3 -1.55874 -2.683901 -2.12132 -2.12132 
C -2.683901 -1.55874 -3 -0.795609 -3 0 
C -3 0.795609 -2.683901 1.55874 -2.12132 2.12132 
C -1.55874 2.683901 -0.795609 3 0 3 
z
" style="stroke: #4169e1"/>
    </defs>
    <g clip-path="url(#p21491be98b)">
     <use xlink:href="#m4992a0c657" x="62.020209" y="114.241413" style="fill: #4169e1; stroke: #4169e1"/>
     <use xlink:href="#m4992a0c657" x="69.809193" y="81.634544" style="fill: #4169e1; stroke: #4169e1"/>
     <use xlink:href="#m4992a0c657" x="90.146377" y="66.484542" style="fill: #4169e1; stroke: #4169e1"/>
     <use xlink:href="#m4992a0c657" x="90.151387" y="73.144914" style="fill: #4169e1; stroke: #4169e1"/>
     <use xlink:href="#m4992a0c657" x="95.511648" y="29.881307" style="fill: #4169e1; stroke: #4169e1"/>
     <use xlink:href="#m4992a0c657" x="95.839737" y="51.970342" style="fill: #4169e1; stroke: #4169e1"/>
     <use xlink:href="#m4992a0c657" x="101.849775" y="44.232936" style="fill: #4169e1; stroke: #4169e1"/>
     <use xlink:href="#m4992a0c657" x="118.236112" y="64.322474" style="fill: #4169e1; stroke: #4169e1"/>
     <use xlink:href="#m4992a0c657" x="120.939078" y="54.281355" style="fill: #4169e1; stroke: #4169e1"/>
     <use xlink:href="#m4992a0c657" x="135.540729" y="61.041083" style="fill: #4169e1; stroke: #4169e1"/>
     <use xlink:href="#m4992a0c657" x="147.464365" y="97.183827" style="fill: #4169e1; stroke: #4169e1"/>
     <use xlink:href="#m4992a0c657" x="166.742327" y="114.65072" style="fill: #4169e1; stroke: #4169e1"/>
     <use xlink:href="#m4992a0c657" x="182.092605" y="155.714117" style="fill: #4169e1; stroke: #4169e1"/>
     <use xlink:href="#m4992a0c657" x="182.602853" y="152.455982" style="fill: #4169e1; stroke: #4169e1"/>
     <use xlink:href="#m4992a0c657" x="204.819129" y="181.144943" style="fill: #4169e1; stroke: #4169e1"/>
     <use xlink:href="#m4992a0c657" x="209.787863" y="150.563982" style="fill: #4169e1; stroke: #4169e1"/>
     <use xlink:href="#m4992a0c657" x="230.652174" y="166.978908" style="fill: #4169e1; stroke: #4169e1"/>
     <use xlink:href="#m4992a0c657" x="237.658999" y="172.612497" style="fill: #4169e1; stroke: #4169e1"/>
     <use xlink:href="#m4992a0c657" x="255.218515" y="118.646309" style="fill: #4169e1; stroke: #4169e1"/>
     <use xlink:href="#m4992a0c657" x="259.205643" y="137.937097" style="fill: #4169e1; stroke: #4169e1"/>
    </g>
   </g>
   <g id="matplotlib.axis_1">
    <g id="xtick_1">
     <g id="line2d_1">
      <defs>
       <path id="m72d693fe22" d="M 0 0 
L 0 3.5 
" style="stroke: #000000; stroke-width: 0.8"/>
      </defs>
      <g>
       <use xlink:href="#m72d693fe22" x="57.744581" y="188.708125" style="stroke: #000000; stroke-width: 0.8"/>
      </g>
     </g>
    </g>
    <g id="xtick_2">
     <g id="line2d_2">
      <g>
       <use xlink:href="#m72d693fe22" x="99.286805" y="188.708125" style="stroke: #000000; stroke-width: 0.8"/>
      </g>
     </g>
    </g>
    <g id="xtick_3">
     <g id="line2d_3">
      <g>
       <use xlink:href="#m72d693fe22" x="140.829029" y="188.708125" style="stroke: #000000; stroke-width: 0.8"/>
      </g>
     </g>
    </g>
    <g id="xtick_4">
     <g id="line2d_4">
      <g>
       <use xlink:href="#m72d693fe22" x="182.371253" y="188.708125" style="stroke: #000000; stroke-width: 0.8"/>
      </g>
     </g>
    </g>
    <g id="xtick_5">
     <g id="line2d_5">
      <g>
       <use xlink:href="#m72d693fe22" x="223.913477" y="188.708125" style="stroke: #000000; stroke-width: 0.8"/>
      </g>
     </g>
    </g>
    <g id="xtick_6">
     <g id="line2d_6">
      <g>
       <use xlink:href="#m72d693fe22" x="265.455701" y="188.708125" style="stroke: #000000; stroke-width: 0.8"/>
      </g>
     </g>
    </g>
   </g>
   <g id="matplotlib.axis_2">
    <g id="ytick_1">
     <g id="line2d_7">
      <defs>
       <path id="m9e38bce372" d="M 0 0 
L -3.5 0 
" style="stroke: #000000; stroke-width: 0.8"/>
      </defs>
      <g>
       <use xlink:href="#m9e38bce372" x="52.160938" y="175.471333" style="stroke: #000000; stroke-width: 0.8"/>
      </g>
     </g>
     <g id="text_1">
      <!-- −1.0 -->
      <g transform="translate(20.878125 179.270552) scale(0.1 -0.1)">
       <defs>
        <path id="DejaVuSans-2212" d="M 678 2272 
L 4684 2272 
L 4684 1741 
L 678 1741 
L 678 2272 
z
" transform="scale(0.015625)"/>
        <path id="DejaVuSans-31" d="M 794 531 
L 1825 531 
L 1825 4091 
L 703 3866 
L 703 4441 
L 1819 4666 
L 2450 4666 
L 2450 531 
L 3481 531 
L 3481 0 
L 794 0 
L 794 531 
z
" transform="scale(0.015625)"/>
        <path id="DejaVuSans-2e" d="M 684 794 
L 1344 794 
L 1344 0 
L 684 0 
L 684 794 
z
" transform="scale(0.015625)"/>
        <path id="DejaVuSans-30" d="M 2034 4250 
Q 1547 4250 1301 3770 
Q 1056 3291 1056 2328 
Q 1056 1369 1301 889 
Q 1547 409 2034 409 
Q 2525 409 2770 889 
Q 3016 1369 3016 2328 
Q 3016 3291 2770 3770 
Q 2525 4250 2034 4250 
z
M 2034 4750 
Q 2819 4750 3233 4129 
Q 3647 3509 3647 2328 
Q 3647 1150 3233 529 
Q 2819 -91 2034 -91 
Q 1250 -91 836 529 
Q 422 1150 422 2328 
Q 422 3509 836 4129 
Q 1250 4750 2034 4750 
z
" transform="scale(0.015625)"/>
       </defs>
       <use xlink:href="#DejaVuSans-2212"/>
       <use xlink:href="#DejaVuSans-31" x="83.789062"/>
       <use xlink:href="#DejaVuSans-2e" x="147.412109"/>
       <use xlink:href="#DejaVuSans-30" x="179.199219"/>
      </g>
     </g>
    </g>
    <g id="ytick_2">
     <g id="line2d_8">
      <g>
       <use xlink:href="#m9e38bce372" x="52.160938" y="142.424442" style="stroke: #000000; stroke-width: 0.8"/>
      </g>
     </g>
     <g id="text_2">
      <!-- −0.5 -->
      <g transform="translate(20.878125 146.223661) scale(0.1 -0.1)">
       <defs>
        <path id="DejaVuSans-35" d="M 691 4666 
L 3169 4666 
L 3169 4134 
L 1269 4134 
L 1269 2991 
Q 1406 3038 1543 3061 
Q 1681 3084 1819 3084 
Q 2600 3084 3056 2656 
Q 3513 2228 3513 1497 
Q 3513 744 3044 326 
Q 2575 -91 1722 -91 
Q 1428 -91 1123 -41 
Q 819 9 494 109 
L 494 744 
Q 775 591 1075 516 
Q 1375 441 1709 441 
Q 2250 441 2565 725 
Q 2881 1009 2881 1497 
Q 2881 1984 2565 2268 
Q 2250 2553 1709 2553 
Q 1456 2553 1204 2497 
Q 953 2441 691 2322 
L 691 4666 
z
" transform="scale(0.015625)"/>
       </defs>
       <use xlink:href="#DejaVuSans-2212"/>
       <use xlink:href="#DejaVuSans-30" x="83.789062"/>
       <use xlink:href="#DejaVuSans-2e" x="147.412109"/>
       <use xlink:href="#DejaVuSans-35" x="179.199219"/>
      </g>
     </g>
    </g>
    <g id="ytick_3">
     <g id="line2d_9">
      <g>
       <use xlink:href="#m9e38bce372" x="52.160938" y="109.377551" style="stroke: #000000; stroke-width: 0.8"/>
      </g>
     </g>
     <g id="text_3">
      <!-- 0.0 -->
      <g transform="translate(29.257812 113.17677) scale(0.1 -0.1)">
       <use xlink:href="#DejaVuSans-30"/>
       <use xlink:href="#DejaVuSans-2e" x="63.623047"/>
       <use xlink:href="#DejaVuSans-30" x="95.410156"/>
      </g>
     </g>
    </g>
    <g id="ytick_4">
     <g id="line2d_10">
      <g>
       <use xlink:href="#m9e38bce372" x="52.160938" y="76.33066" style="stroke: #000000; stroke-width: 0.8"/>
      </g>
     </g>
     <g id="text_4">
      <!-- 0.5 -->
      <g transform="translate(29.257812 80.129878) scale(0.1 -0.1)">
       <use xlink:href="#DejaVuSans-30"/>
       <use xlink:href="#DejaVuSans-2e" x="63.623047"/>
       <use xlink:href="#DejaVuSans-35" x="95.410156"/>
      </g>
     </g>
    </g>
    <g id="ytick_5">
     <g id="line2d_11">
      <g>
       <use xlink:href="#m9e38bce372" x="52.160938" y="43.283768" style="stroke: #000000; stroke-width: 0.8"/>
      </g>
     </g>
     <g id="text_5">
      <!-- 1.0 -->
      <g transform="translate(29.257812 47.082987) scale(0.1 -0.1)">
       <use xlink:href="#DejaVuSans-31"/>
       <use xlink:href="#DejaVuSans-2e" x="63.623047"/>
       <use xlink:href="#DejaVuSans-30" x="95.410156"/>
      </g>
     </g>
    </g>
    <g id="text_6">
     <!-- Target -->
     <g transform="translate(14.798437 120.985) rotate(-90) scale(0.1 -0.1)">
      <defs>
       <path id="DejaVuSans-54" d="M -19 4666 
L 3928 4666 
L 3928 4134 
L 2272 4134 
L 2272 0 
L 1638 0 
L 1638 4134 
L -19 4134 
L -19 4666 
z
" transform="scale(0.015625)"/>
       <path id="DejaVuSans-61" d="M 2194 1759 
Q 1497 1759 1228 1600 
Q 959 1441 959 1056 
Q 959 750 1161 570 
Q 1363 391 1709 391 
Q 2188 391 2477 730 
Q 2766 1069 2766 1631 
L 2766 1759 
L 2194 1759 
z
M 3341 1997 
L 3341 0 
L 2766 0 
L 2766 531 
Q 2569 213 2275 61 
Q 1981 -91 1556 -91 
Q 1019 -91 701 211 
Q 384 513 384 1019 
Q 384 1609 779 1909 
Q 1175 2209 1959 2209 
L 2766 2209 
L 2766 2266 
Q 2766 2663 2505 2880 
Q 2244 3097 1772 3097 
Q 1472 3097 1187 3025 
Q 903 2953 641 2809 
L 641 3341 
Q 956 3463 1253 3523 
Q 1550 3584 1831 3584 
Q 2591 3584 2966 3190 
Q 3341 2797 3341 1997 
z
" transform="scale(0.015625)"/>
       <path id="DejaVuSans-72" d="M 2631 2963 
Q 2534 3019 2420 3045 
Q 2306 3072 2169 3072 
Q 1681 3072 1420 2755 
Q 1159 2438 1159 1844 
L 1159 0 
L 581 0 
L 581 3500 
L 1159 3500 
L 1159 2956 
Q 1341 3275 1631 3429 
Q 1922 3584 2338 3584 
Q 2397 3584 2469 3576 
Q 2541 3569 2628 3553 
L 2631 2963 
z
" transform="scale(0.015625)"/>
       <path id="DejaVuSans-67" d="M 2906 1791 
Q 2906 2416 2648 2759 
Q 2391 3103 1925 3103 
Q 1463 3103 1205 2759 
Q 947 2416 947 1791 
Q 947 1169 1205 825 
Q 1463 481 1925 481 
Q 2391 481 2648 825 
Q 2906 1169 2906 1791 
z
M 3481 434 
Q 3481 -459 3084 -895 
Q 2688 -1331 1869 -1331 
Q 1566 -1331 1297 -1286 
Q 1028 -1241 775 -1147 
L 775 -588 
Q 1028 -725 1275 -790 
Q 1522 -856 1778 -856 
Q 2344 -856 2625 -561 
Q 2906 -266 2906 331 
L 2906 616 
Q 2728 306 2450 153 
Q 2172 0 1784 0 
Q 1141 0 747 490 
Q 353 981 353 1791 
Q 353 2603 747 3093 
Q 1141 3584 1784 3584 
Q 2172 3584 2450 3431 
Q 2728 3278 2906 2969 
L 2906 3500 
L 3481 3500 
L 3481 434 
z
" transform="scale(0.015625)"/>
       <path id="DejaVuSans-65" d="M 3597 1894 
L 3597 1613 
L 953 1613 
Q 991 1019 1311 708 
Q 1631 397 2203 397 
Q 2534 397 2845 478 
Q 3156 559 3463 722 
L 3463 178 
Q 3153 47 2828 -22 
Q 2503 -91 2169 -91 
Q 1331 -91 842 396 
Q 353 884 353 1716 
Q 353 2575 817 3079 
Q 1281 3584 2069 3584 
Q 2775 3584 3186 3129 
Q 3597 2675 3597 1894 
z
M 3022 2063 
Q 3016 2534 2758 2815 
Q 2500 3097 2075 3097 
Q 1594 3097 1305 2825 
Q 1016 2553 972 2059 
L 3022 2063 
z
" transform="scale(0.015625)"/>
       <path id="DejaVuSans-74" d="M 1172 4494 
L 1172 3500 
L 2356 3500 
L 2356 3053 
L 1172 3053 
L 1172 1153 
Q 1172 725 1289 603 
Q 1406 481 1766 481 
L 2356 481 
L 2356 0 
L 1766 0 
Q 1100 0 847 248 
Q 594 497 594 1153 
L 594 3053 
L 172 3053 
L 172 3500 
L 594 3500 
L 594 4494 
L 1172 4494 
z
" transform="scale(0.015625)"/>
      </defs>
      <use xlink:href="#DejaVuSans-54"/>
      <use xlink:href="#DejaVuSans-61" x="44.583984"/>
      <use xlink:href="#DejaVuSans-72" x="105.863281"/>
      <use xlink:href="#DejaVuSans-67" x="145.226562"/>
      <use xlink:href="#DejaVuSans-65" x="208.703125"/>
      <use xlink:href="#DejaVuSans-74" x="270.226562"/>
     </g>
    </g>
   </g>
   <g id="line2d_12">
    <path d="M 223.913477 188.708125 
L 223.913477 22.318125 
" clip-path="url(#p21491be98b)" style="fill: none; stroke: #ffa500; stroke-width: 2; stroke-linecap: square"/>
   </g>
   <g id="patch_3">
    <path d="M 52.160938 188.708125 
L 52.160938 22.318125 
" style="fill: none; stroke: #000000; stroke-width: 0.8; stroke-linejoin: miter; stroke-linecap: square"/>
   </g>
   <g id="patch_4">
    <path d="M 269.064915 188.708125 
L 269.064915 22.318125 
" style="fill: none; stroke: #000000; stroke-width: 0.8; stroke-linejoin: miter; stroke-linecap: square"/>
   </g>
   <g id="patch_5">
    <path d="M 52.160938 188.708125 
L 269.064915 188.708125 
" style="fill: none; stroke: #000000; stroke-width: 0.8; stroke-linejoin: miter; stroke-linecap: square"/>
   </g>
   <g id="patch_6">
    <path d="M 52.160938 22.318125 
L 269.064915 22.318125 
" style="fill: none; stroke: #000000; stroke-width: 0.8; stroke-linejoin: miter; stroke-linecap: square"/>
   </g>
   <g id="text_7">
    <!-- Actual Data -->
    <g transform="translate(125.583239 16.318125) scale(0.12 -0.12)">
     <defs>
      <path id="DejaVuSans-41" d="M 2188 4044 
L 1331 1722 
L 3047 1722 
L 2188 4044 
z
M 1831 4666 
L 2547 4666 
L 4325 0 
L 3669 0 
L 3244 1197 
L 1141 1197 
L 716 0 
L 50 0 
L 1831 4666 
z
" transform="scale(0.015625)"/>
      <path id="DejaVuSans-63" d="M 3122 3366 
L 3122 2828 
Q 2878 2963 2633 3030 
Q 2388 3097 2138 3097 
Q 1578 3097 1268 2742 
Q 959 2388 959 1747 
Q 959 1106 1268 751 
Q 1578 397 2138 397 
Q 2388 397 2633 464 
Q 2878 531 3122 666 
L 3122 134 
Q 2881 22 2623 -34 
Q 2366 -91 2075 -91 
Q 1284 -91 818 406 
Q 353 903 353 1747 
Q 353 2603 823 3093 
Q 1294 3584 2113 3584 
Q 2378 3584 2631 3529 
Q 2884 3475 3122 3366 
z
" transform="scale(0.015625)"/>
      <path id="DejaVuSans-75" d="M 544 1381 
L 544 3500 
L 1119 3500 
L 1119 1403 
Q 1119 906 1312 657 
Q 1506 409 1894 409 
Q 2359 409 2629 706 
Q 2900 1003 2900 1516 
L 2900 3500 
L 3475 3500 
L 3475 0 
L 2900 0 
L 2900 538 
Q 2691 219 2414 64 
Q 2138 -91 1772 -91 
Q 1169 -91 856 284 
Q 544 659 544 1381 
z
M 1991 3584 
L 1991 3584 
z
" transform="scale(0.015625)"/>
      <path id="DejaVuSans-6c" d="M 603 4863 
L 1178 4863 
L 1178 0 
L 603 0 
L 603 4863 
z
" transform="scale(0.015625)"/>
      <path id="DejaVuSans-20" transform="scale(0.015625)"/>
      <path id="DejaVuSans-44" d="M 1259 4147 
L 1259 519 
L 2022 519 
Q 2988 519 3436 956 
Q 3884 1394 3884 2338 
Q 3884 3275 3436 3711 
Q 2988 4147 2022 4147 
L 1259 4147 
z
M 628 4666 
L 1925 4666 
Q 3281 4666 3915 4102 
Q 4550 3538 4550 2338 
Q 4550 1131 3912 565 
Q 3275 0 1925 0 
L 628 0 
L 628 4666 
z
" transform="scale(0.015625)"/>
     </defs>
     <use xlink:href="#DejaVuSans-41"/>
     <use xlink:href="#DejaVuSans-63" x="66.658203"/>
     <use xlink:href="#DejaVuSans-74" x="121.638672"/>
     <use xlink:href="#DejaVuSans-75" x="160.847656"/>
     <use xlink:href="#DejaVuSans-61" x="224.226562"/>
     <use xlink:href="#DejaVuSans-6c" x="285.505859"/>
     <use xlink:href="#DejaVuSans-20" x="313.289062"/>
     <use xlink:href="#DejaVuSans-44" x="345.076172"/>
     <use xlink:href="#DejaVuSans-61" x="422.078125"/>
     <use xlink:href="#DejaVuSans-74" x="483.357422"/>
     <use xlink:href="#DejaVuSans-61" x="522.566406"/>
    </g>
   </g>
  </g>
  <g id="axes_2">
   <g id="patch_7">
    <path d="M 52.160938 385.478125 
L 269.064915 385.478125 
L 269.064915 219.088125 
L 52.160938 219.088125 
z
" style="fill: #ffffff"/>
   </g>
   <g id="PolyCollection_1">
    <defs>
     <path id="m9068d82517" d="M 223.913477 -45.119432 
L 223.913477 -45.119432 
L 223.913477 -45.879551 
L 223.913477 -46.639669 
L 223.913477 -47.399788 
L 223.913477 -48.159907 
L 223.913477 -48.920026 
L 223.913477 -49.680144 
L 223.913477 -50.440263 
L 223.913477 -51.200382 
L 223.913477 -51.960501 
L 223.913477 -52.72062 
L 223.913477 -53.480738 
L 223.913477 -54.240857 
L 223.913477 -55.000976 
L 223.913477 -55.761095 
L 223.913477 -56.521213 
L 223.913477 -57.281332 
L 223.913477 -58.041451 
L 223.913477 -58.80157 
L 223.913477 -59.561689 
L 223.913477 -60.321807 
L 223.913477 -61.081926 
L 223.913477 -61.842045 
L 223.913477 -62.602164 
L 223.913477 -63.362282 
L 223.913477 -64.122401 
L 223.913477 -64.88252 
L 223.913477 -65.642639 
L 223.913477 -66.402758 
L 223.913477 -67.162876 
L 223.913477 -67.922995 
L 223.913477 -68.683114 
L 223.913477 -69.443233 
L 223.913477 -70.203351 
L 223.913477 -70.96347 
L 223.913477 -71.723589 
L 223.913477 -72.483708 
L 223.913477 -73.243827 
L 223.913477 -74.003945 
L 223.913477 -74.764064 
L 223.913477 -75.524183 
L 223.913477 -76.284302 
L 223.913477 -77.04442 
L 223.913477 -77.804539 
L 223.913477 -78.564658 
L 223.913477 -79.324777 
L 223.913477 -80.084896 
L 223.913477 -80.845014 
L 223.913477 -81.605133 
L 223.913477 -82.365252 
L 223.913477 -83.125371 
L 223.913477 -83.885489 
L 223.913477 -84.645608 
L 223.913477 -85.405727 
L 223.913477 -86.165846 
L 223.913477 -86.925964 
L 223.913477 -87.686083 
L 223.913477 -88.446202 
L 223.913477 -89.206321 
L 223.913477 -89.96644 
L 223.913477 -90.726558 
L 223.913477 -91.486677 
L 223.913477 -92.246796 
L 223.913477 -93.006915 
L 223.913477 -93.767033 
L 223.913477 -94.527152 
L 223.913477 -95.287271 
L 223.913477 -96.04739 
L 223.913477 -96.807509 
L 223.913477 -97.567627 
L 223.913477 -98.327746 
L 223.913477 -99.087865 
L 223.913477 -99.847984 
L 223.913477 -100.608102 
L 223.913477 -101.368221 
L 223.913477 -102.12834 
L 223.913477 -102.888459 
L 223.913477 -103.648578 
L 223.913477 -104.408696 
L 223.913477 -105.168815 
L 223.913477 -105.928934 
L 223.913477 -106.689053 
L 223.913477 -107.449171 
L 223.913477 -108.20929 
L 223.913477 -108.969409 
L 223.913477 -109.729528 
L 223.913477 -110.489647 
L 223.913477 -111.249765 
L 223.913477 -112.009884 
L 223.913477 -112.770003 
L 223.913477 -113.530122 
L 223.913477 -114.29024 
L 223.913477 -115.050359 
L 223.913477 -115.810478 
L 223.913477 -116.570597 
L 223.913477 -117.330716 
L 223.913477 -118.090834 
L 223.913477 -118.850953 
L 223.913477 -119.611072 
L 223.913477 -120.371191 
L 223.913477 -121.131309 
L 223.913477 -121.891428 
L 223.913477 -122.651547 
L 223.913477 -123.411666 
L 223.913477 -124.171784 
L 223.913477 -124.931903 
L 223.913477 -125.692022 
L 223.913477 -126.452141 
L 223.913477 -127.21226 
L 223.913477 -127.972378 
L 223.913477 -128.732497 
L 223.913477 -129.492616 
L 223.913477 -130.252735 
L 223.913477 -131.012853 
L 223.913477 -131.772972 
L 223.913477 -132.533091 
L 223.913477 -133.29321 
L 223.913477 -134.053329 
L 223.913477 -134.813447 
L 223.913477 -135.573566 
L 223.913477 -136.333685 
L 223.913477 -137.093804 
L 223.913477 -137.853922 
L 223.913477 -138.614041 
L 223.913477 -139.37416 
L 223.913477 -140.134279 
L 223.913477 -140.894398 
L 223.913477 -141.654516 
L 223.913477 -142.414635 
L 223.913477 -143.174754 
L 223.913477 -143.934873 
L 223.913477 -144.694991 
L 223.913477 -145.45511 
L 223.913477 -146.215229 
L 223.913477 -146.975348 
L 223.913477 -147.735467 
L 223.913477 -148.495585 
L 223.913477 -149.255704 
L 223.913477 -150.015823 
L 223.913477 -150.775942 
L 223.913477 -151.53606 
L 223.913477 -152.296179 
L 223.913477 -153.056298 
L 223.913477 -153.816417 
L 223.913477 -154.576536 
L 223.913477 -155.336654 
L 223.913477 -156.096773 
L 223.913477 -156.856892 
L 223.913477 -157.617011 
L 223.913477 -158.377129 
L 223.913477 -159.137248 
L 223.913477 -159.897367 
L 223.913477 -160.657486 
L 223.913477 -161.417604 
L 223.913477 -162.177723 
L 223.913477 -162.937842 
L 223.913477 -163.697961 
L 223.913477 -164.45808 
L 223.913477 -165.218198 
L 223.913477 -165.978317 
L 223.913477 -166.738436 
L 223.913477 -167.498555 
L 223.913477 -168.258673 
L 223.913477 -169.018792 
L 223.913477 -169.778911 
L 223.913477 -170.53903 
L 223.913477 -171.299149 
L 223.913477 -172.059267 
L 223.913477 -172.819386 
L 223.913477 -173.579505 
L 223.913477 -174.339624 
L 223.913477 -175.099742 
L 223.913477 -175.859861 
L 223.913477 -176.61998 
L 223.913477 -177.380099 
L 223.913477 -178.140218 
L 223.913477 -178.900336 
L 223.913477 -179.660455 
L 223.913477 -180.420574 
L 223.913477 -181.180693 
L 223.913477 -181.940811 
L 223.913477 -182.70093 
L 223.913477 -183.461049 
L 223.913477 -184.221168 
L 223.913477 -184.981287 
L 223.913477 -185.741405 
L 223.913477 -186.501524 
L 223.913477 -187.261643 
L 223.913477 -188.021762 
L 223.913477 -188.78188 
L 223.913477 -189.541999 
L 223.913477 -190.302118 
L 223.913477 -191.062237 
L 223.913477 -191.822356 
L 223.913477 -192.582474 
L 223.913477 -193.342593 
L 223.913477 -194.102712 
L 223.913477 -194.862831 
L 223.913477 -195.622949 
L 223.913477 -196.383068 
L 223.913477 -196.383068 
L 223.913477 -196.383068 
L 223.913477 -195.622949 
L 223.913477 -194.862831 
L 223.913477 -194.102712 
L 223.913478 -193.342593 
L 223.913478 -192.582474 
L 223.913478 -191.822356 
L 223.913479 -191.062237 
L 223.91348 -190.302118 
L 223.913481 -189.541999 
L 223.913483 -188.78188 
L 223.913486 -188.021762 
L 223.91349 -187.261643 
L 223.913497 -186.501524 
L 223.913506 -185.741405 
L 223.913519 -184.981287 
L 223.913539 -184.221168 
L 223.913568 -183.461049 
L 223.913608 -182.70093 
L 223.913666 -181.940811 
L 223.913748 -181.180693 
L 223.913863 -180.420574 
L 223.914024 -179.660455 
L 223.914248 -178.900336 
L 223.914558 -178.140218 
L 223.914983 -177.380099 
L 223.915564 -176.61998 
L 223.916353 -175.859861 
L 223.917417 -175.099742 
L 223.918845 -174.339624 
L 223.920748 -173.579505 
L 223.92327 -172.819386 
L 223.926593 -172.059267 
L 223.930943 -171.299149 
L 223.936604 -170.53903 
L 223.943927 -169.778911 
L 223.953342 -169.018792 
L 223.965372 -168.258673 
L 223.98065 -167.498555 
L 223.999932 -166.738436 
L 224.024119 -165.978317 
L 224.054271 -165.218198 
L 224.091625 -164.45808 
L 224.137613 -163.697961 
L 224.193873 -162.937842 
L 224.262269 -162.177723 
L 224.344889 -161.417604 
L 224.444057 -160.657486 
L 224.562324 -159.897367 
L 224.702457 -159.137248 
L 224.86742 -158.377129 
L 225.060339 -157.617011 
L 225.284461 -156.856892 
L 225.543096 -156.096773 
L 225.839548 -155.336654 
L 226.177032 -154.576536 
L 226.558578 -153.816417 
L 226.986925 -153.056298 
L 227.464406 -152.296179 
L 227.992823 -151.53606 
L 228.573324 -150.775942 
L 229.206274 -150.015823 
L 229.891138 -149.255704 
L 230.626371 -148.495585 
L 231.409326 -147.735467 
L 232.236178 -146.975348 
L 233.101885 -146.215229 
L 234.000168 -145.45511 
L 234.923537 -144.694991 
L 235.863344 -143.934873 
L 236.809891 -143.174754 
L 237.752561 -142.414635 
L 238.679998 -141.654516 
L 239.580321 -140.894398 
L 240.441364 -140.134279 
L 241.250944 -139.37416 
L 241.99714 -138.614041 
L 242.668589 -137.853922 
L 243.254765 -137.093804 
L 243.746258 -136.333685 
L 244.13502 -135.573566 
L 244.414592 -134.813447 
L 244.580272 -134.053329 
L 244.629256 -133.29321 
L 244.560711 -132.533091 
L 244.375801 -131.772972 
L 244.077656 -131.012853 
L 243.671277 -130.252735 
L 243.163406 -129.492616 
L 242.562331 -128.732497 
L 241.877667 -127.972378 
L 241.120099 -127.21226 
L 240.301104 -126.452141 
L 239.432665 -125.692022 
L 238.526983 -124.931903 
L 237.596193 -124.171784 
L 236.652106 -123.411666 
L 235.705967 -122.651547 
L 234.768253 -121.891428 
L 233.848496 -121.131309 
L 232.955154 -120.371191 
L 232.09552 -119.611072 
L 231.275667 -118.850953 
L 230.500433 -118.090834 
L 229.773441 -117.330716 
L 229.097151 -116.570597 
L 228.472931 -115.810478 
L 227.901159 -115.050359 
L 227.38133 -114.29024 
L 226.912179 -113.530122 
L 226.491806 -112.770003 
L 226.117804 -112.009884 
L 225.787375 -111.249765 
L 225.497453 -110.489647 
L 225.2448 -109.729528 
L 225.026108 -108.969409 
L 224.838071 -108.20929 
L 224.67746 -107.449171 
L 224.541172 -106.689053 
L 224.426275 -105.928934 
L 224.330035 -105.168815 
L 224.249941 -104.408696 
L 224.183707 -103.648578 
L 224.129282 -102.888459 
L 224.084841 -102.12834 
L 224.048782 -101.368221 
L 224.019705 -100.608102 
L 223.996404 -99.847984 
L 223.977847 -99.087865 
L 223.96316 -98.327746 
L 223.951607 -97.567627 
L 223.942574 -96.807509 
L 223.935556 -96.04739 
L 223.930135 -95.287271 
L 223.925974 -94.527152 
L 223.922799 -93.767033 
L 223.920392 -93.006915 
L 223.918577 -92.246796 
L 223.917217 -91.486677 
L 223.916204 -90.726558 
L 223.915455 -89.96644 
L 223.914903 -89.206321 
L 223.914499 -88.446202 
L 223.914206 -87.686083 
L 223.913994 -86.925964 
L 223.913841 -86.165846 
L 223.913732 -85.405727 
L 223.913655 -84.645608 
L 223.9136 -83.885489 
L 223.913562 -83.125371 
L 223.913535 -82.365252 
L 223.913517 -81.605133 
L 223.913504 -80.845014 
L 223.913495 -80.084896 
L 223.913489 -79.324777 
L 223.913485 -78.564658 
L 223.913483 -77.804539 
L 223.913481 -77.04442 
L 223.91348 -76.284302 
L 223.913479 -75.524183 
L 223.913478 -74.764064 
L 223.913478 -74.003945 
L 223.913478 -73.243827 
L 223.913477 -72.483708 
L 223.913477 -71.723589 
L 223.913477 -70.96347 
L 223.913477 -70.203351 
L 223.913477 -69.443233 
L 223.913477 -68.683114 
L 223.913477 -67.922995 
L 223.913477 -67.162876 
L 223.913477 -66.402758 
L 223.913477 -65.642639 
L 223.913477 -64.88252 
L 223.913477 -64.122401 
L 223.913477 -63.362282 
L 223.913477 -62.602164 
L 223.913477 -61.842045 
L 223.913477 -61.081926 
L 223.913477 -60.321807 
L 223.913477 -59.561689 
L 223.913477 -58.80157 
L 223.913477 -58.041451 
L 223.913477 -57.281332 
L 223.913477 -56.521213 
L 223.913477 -55.761095 
L 223.913477 -55.000976 
L 223.913477 -54.240857 
L 223.913477 -53.480738 
L 223.913477 -52.72062 
L 223.913477 -51.960501 
L 223.913477 -51.200382 
L 223.913477 -50.440263 
L 223.913477 -49.680144 
L 223.913477 -48.920026 
L 223.913477 -48.159907 
L 223.913477 -47.399788 
L 223.913477 -46.639669 
L 223.913477 -45.879551 
L 223.913477 -45.119432 
z
" style="stroke: #ffa500; stroke-opacity: 0.8"/>
    </defs>
    <g clip-path="url(#pcfb3f04c64)">
     <use xlink:href="#m9068d82517" x="0" y="423.034375" style="fill: #ffa500; fill-opacity: 0.8; stroke: #ffa500; stroke-opacity: 0.8"/>
    </g>
   </g>
   <g id="matplotlib.axis_3">
    <g id="xtick_7">
     <g id="line2d_13">
      <g>
       <use xlink:href="#m72d693fe22" x="57.744581" y="385.478125" style="stroke: #000000; stroke-width: 0.8"/>
      </g>
     </g>
     <g id="text_8">
      <!-- 0.0 -->
      <g transform="translate(49.793018 400.076562) scale(0.1 -0.1)">
       <use xlink:href="#DejaVuSans-30"/>
       <use xlink:href="#DejaVuSans-2e" x="63.623047"/>
       <use xlink:href="#DejaVuSans-30" x="95.410156"/>
      </g>
     </g>
    </g>
    <g id="xtick_8">
     <g id="line2d_14">
      <g>
       <use xlink:href="#m72d693fe22" x="99.286805" y="385.478125" style="stroke: #000000; stroke-width: 0.8"/>
      </g>
     </g>
     <g id="text_9">
      <!-- 0.2 -->
      <g transform="translate(91.335242 400.076562) scale(0.1 -0.1)">
       <defs>
        <path id="DejaVuSans-32" d="M 1228 531 
L 3431 531 
L 3431 0 
L 469 0 
L 469 531 
Q 828 903 1448 1529 
Q 2069 2156 2228 2338 
Q 2531 2678 2651 2914 
Q 2772 3150 2772 3378 
Q 2772 3750 2511 3984 
Q 2250 4219 1831 4219 
Q 1534 4219 1204 4116 
Q 875 4013 500 3803 
L 500 4441 
Q 881 4594 1212 4672 
Q 1544 4750 1819 4750 
Q 2544 4750 2975 4387 
Q 3406 4025 3406 3419 
Q 3406 3131 3298 2873 
Q 3191 2616 2906 2266 
Q 2828 2175 2409 1742 
Q 1991 1309 1228 531 
z
" transform="scale(0.015625)"/>
       </defs>
       <use xlink:href="#DejaVuSans-30"/>
       <use xlink:href="#DejaVuSans-2e" x="63.623047"/>
       <use xlink:href="#DejaVuSans-32" x="95.410156"/>
      </g>
     </g>
    </g>
    <g id="xtick_9">
     <g id="line2d_15">
      <g>
       <use xlink:href="#m72d693fe22" x="140.829029" y="385.478125" style="stroke: #000000; stroke-width: 0.8"/>
      </g>
     </g>
     <g id="text_10">
      <!-- 0.4 -->
      <g transform="translate(132.877467 400.076562) scale(0.1 -0.1)">
       <defs>
        <path id="DejaVuSans-34" d="M 2419 4116 
L 825 1625 
L 2419 1625 
L 2419 4116 
z
M 2253 4666 
L 3047 4666 
L 3047 1625 
L 3713 1625 
L 3713 1100 
L 3047 1100 
L 3047 0 
L 2419 0 
L 2419 1100 
L 313 1100 
L 313 1709 
L 2253 4666 
z
" transform="scale(0.015625)"/>
       </defs>
       <use xlink:href="#DejaVuSans-30"/>
       <use xlink:href="#DejaVuSans-2e" x="63.623047"/>
       <use xlink:href="#DejaVuSans-34" x="95.410156"/>
      </g>
     </g>
    </g>
    <g id="xtick_10">
     <g id="line2d_16">
      <g>
       <use xlink:href="#m72d693fe22" x="182.371253" y="385.478125" style="stroke: #000000; stroke-width: 0.8"/>
      </g>
     </g>
     <g id="text_11">
      <!-- 0.6 -->
      <g transform="translate(174.419691 400.076562) scale(0.1 -0.1)">
       <defs>
        <path id="DejaVuSans-36" d="M 2113 2584 
Q 1688 2584 1439 2293 
Q 1191 2003 1191 1497 
Q 1191 994 1439 701 
Q 1688 409 2113 409 
Q 2538 409 2786 701 
Q 3034 994 3034 1497 
Q 3034 2003 2786 2293 
Q 2538 2584 2113 2584 
z
M 3366 4563 
L 3366 3988 
Q 3128 4100 2886 4159 
Q 2644 4219 2406 4219 
Q 1781 4219 1451 3797 
Q 1122 3375 1075 2522 
Q 1259 2794 1537 2939 
Q 1816 3084 2150 3084 
Q 2853 3084 3261 2657 
Q 3669 2231 3669 1497 
Q 3669 778 3244 343 
Q 2819 -91 2113 -91 
Q 1303 -91 875 529 
Q 447 1150 447 2328 
Q 447 3434 972 4092 
Q 1497 4750 2381 4750 
Q 2619 4750 2861 4703 
Q 3103 4656 3366 4563 
z
" transform="scale(0.015625)"/>
       </defs>
       <use xlink:href="#DejaVuSans-30"/>
       <use xlink:href="#DejaVuSans-2e" x="63.623047"/>
       <use xlink:href="#DejaVuSans-36" x="95.410156"/>
      </g>
     </g>
    </g>
    <g id="xtick_11">
     <g id="line2d_17">
      <g>
       <use xlink:href="#m72d693fe22" x="223.913477" y="385.478125" style="stroke: #000000; stroke-width: 0.8"/>
      </g>
     </g>
     <g id="text_12">
      <!-- 0.8 -->
      <g transform="translate(215.961915 400.076562) scale(0.1 -0.1)">
       <defs>
        <path id="DejaVuSans-38" d="M 2034 2216 
Q 1584 2216 1326 1975 
Q 1069 1734 1069 1313 
Q 1069 891 1326 650 
Q 1584 409 2034 409 
Q 2484 409 2743 651 
Q 3003 894 3003 1313 
Q 3003 1734 2745 1975 
Q 2488 2216 2034 2216 
z
M 1403 2484 
Q 997 2584 770 2862 
Q 544 3141 544 3541 
Q 544 4100 942 4425 
Q 1341 4750 2034 4750 
Q 2731 4750 3128 4425 
Q 3525 4100 3525 3541 
Q 3525 3141 3298 2862 
Q 3072 2584 2669 2484 
Q 3125 2378 3379 2068 
Q 3634 1759 3634 1313 
Q 3634 634 3220 271 
Q 2806 -91 2034 -91 
Q 1263 -91 848 271 
Q 434 634 434 1313 
Q 434 1759 690 2068 
Q 947 2378 1403 2484 
z
M 1172 3481 
Q 1172 3119 1398 2916 
Q 1625 2713 2034 2713 
Q 2441 2713 2670 2916 
Q 2900 3119 2900 3481 
Q 2900 3844 2670 4047 
Q 2441 4250 2034 4250 
Q 1625 4250 1398 4047 
Q 1172 3844 1172 3481 
z
" transform="scale(0.015625)"/>
       </defs>
       <use xlink:href="#DejaVuSans-30"/>
       <use xlink:href="#DejaVuSans-2e" x="63.623047"/>
       <use xlink:href="#DejaVuSans-38" x="95.410156"/>
      </g>
     </g>
    </g>
    <g id="xtick_12">
     <g id="line2d_18">
      <g>
       <use xlink:href="#m72d693fe22" x="265.455701" y="385.478125" style="stroke: #000000; stroke-width: 0.8"/>
      </g>
     </g>
     <g id="text_13">
      <!-- 1.0 -->
      <g transform="translate(257.504139 400.076562) scale(0.1 -0.1)">
       <use xlink:href="#DejaVuSans-31"/>
       <use xlink:href="#DejaVuSans-2e" x="63.623047"/>
       <use xlink:href="#DejaVuSans-30" x="95.410156"/>
      </g>
     </g>
    </g>
    <g id="text_14">
     <!-- Feature -->
     <g transform="translate(141.723082 413.754687) scale(0.1 -0.1)">
      <defs>
       <path id="DejaVuSans-46" d="M 628 4666 
L 3309 4666 
L 3309 4134 
L 1259 4134 
L 1259 2759 
L 3109 2759 
L 3109 2228 
L 1259 2228 
L 1259 0 
L 628 0 
L 628 4666 
z
" transform="scale(0.015625)"/>
      </defs>
      <use xlink:href="#DejaVuSans-46"/>
      <use xlink:href="#DejaVuSans-65" x="52.019531"/>
      <use xlink:href="#DejaVuSans-61" x="113.542969"/>
      <use xlink:href="#DejaVuSans-74" x="174.822266"/>
      <use xlink:href="#DejaVuSans-75" x="214.03125"/>
      <use xlink:href="#DejaVuSans-72" x="277.410156"/>
      <use xlink:href="#DejaVuSans-65" x="316.273438"/>
     </g>
    </g>
   </g>
   <g id="matplotlib.axis_4">
    <g id="ytick_6">
     <g id="line2d_19">
      <g>
       <use xlink:href="#m9e38bce372" x="52.160938" y="377.914943" style="stroke: #000000; stroke-width: 0.8"/>
      </g>
     </g>
     <g id="text_15">
      <!-- −3 -->
      <g transform="translate(30.41875 381.714162) scale(0.1 -0.1)">
       <defs>
        <path id="DejaVuSans-33" d="M 2597 2516 
Q 3050 2419 3304 2112 
Q 3559 1806 3559 1356 
Q 3559 666 3084 287 
Q 2609 -91 1734 -91 
Q 1441 -91 1130 -33 
Q 819 25 488 141 
L 488 750 
Q 750 597 1062 519 
Q 1375 441 1716 441 
Q 2309 441 2620 675 
Q 2931 909 2931 1356 
Q 2931 1769 2642 2001 
Q 2353 2234 1838 2234 
L 1294 2234 
L 1294 2753 
L 1863 2753 
Q 2328 2753 2575 2939 
Q 2822 3125 2822 3475 
Q 2822 3834 2567 4026 
Q 2313 4219 1838 4219 
Q 1578 4219 1281 4162 
Q 984 4106 628 3988 
L 628 4550 
Q 988 4650 1302 4700 
Q 1616 4750 1894 4750 
Q 2613 4750 3031 4423 
Q 3450 4097 3450 3541 
Q 3450 3153 3228 2886 
Q 3006 2619 2597 2516 
z
" transform="scale(0.015625)"/>
       </defs>
       <use xlink:href="#DejaVuSans-2212"/>
       <use xlink:href="#DejaVuSans-33" x="83.789062"/>
      </g>
     </g>
    </g>
    <g id="ytick_7">
     <g id="line2d_20">
      <g>
       <use xlink:href="#m9e38bce372" x="52.160938" y="352.704337" style="stroke: #000000; stroke-width: 0.8"/>
      </g>
     </g>
     <g id="text_16">
      <!-- −2 -->
      <g transform="translate(30.41875 356.503556) scale(0.1 -0.1)">
       <use xlink:href="#DejaVuSans-2212"/>
       <use xlink:href="#DejaVuSans-32" x="83.789062"/>
      </g>
     </g>
    </g>
    <g id="ytick_8">
     <g id="line2d_21">
      <g>
       <use xlink:href="#m9e38bce372" x="52.160938" y="327.493731" style="stroke: #000000; stroke-width: 0.8"/>
      </g>
     </g>
     <g id="text_17">
      <!-- −1 -->
      <g transform="translate(30.41875 331.29295) scale(0.1 -0.1)">
       <use xlink:href="#DejaVuSans-2212"/>
       <use xlink:href="#DejaVuSans-31" x="83.789062"/>
      </g>
     </g>
    </g>
    <g id="ytick_9">
     <g id="line2d_22">
      <g>
       <use xlink:href="#m9e38bce372" x="52.160938" y="302.283125" style="stroke: #000000; stroke-width: 0.8"/>
      </g>
     </g>
     <g id="text_18">
      <!-- 0 -->
      <g transform="translate(38.798438 306.082344) scale(0.1 -0.1)">
       <use xlink:href="#DejaVuSans-30"/>
      </g>
     </g>
    </g>
    <g id="ytick_10">
     <g id="line2d_23">
      <g>
       <use xlink:href="#m9e38bce372" x="52.160938" y="277.072519" style="stroke: #000000; stroke-width: 0.8"/>
      </g>
     </g>
     <g id="text_19">
      <!-- 1 -->
      <g transform="translate(38.798438 280.871738) scale(0.1 -0.1)">
       <use xlink:href="#DejaVuSans-31"/>
      </g>
     </g>
    </g>
    <g id="ytick_11">
     <g id="line2d_24">
      <g>
       <use xlink:href="#m9e38bce372" x="52.160938" y="251.861913" style="stroke: #000000; stroke-width: 0.8"/>
      </g>
     </g>
     <g id="text_20">
      <!-- 2 -->
      <g transform="translate(38.798438 255.661132) scale(0.1 -0.1)">
       <use xlink:href="#DejaVuSans-32"/>
      </g>
     </g>
    </g>
    <g id="ytick_12">
     <g id="line2d_25">
      <g>
       <use xlink:href="#m9e38bce372" x="52.160938" y="226.651307" style="stroke: #000000; stroke-width: 0.8"/>
      </g>
     </g>
     <g id="text_21">
      <!-- 3 -->
      <g transform="translate(38.798438 230.450526) scale(0.1 -0.1)">
       <use xlink:href="#DejaVuSans-33"/>
      </g>
     </g>
    </g>
    <g id="text_22">
     <!-- Target -->
     <g transform="translate(24.339063 317.755) rotate(-90) scale(0.1 -0.1)">
      <use xlink:href="#DejaVuSans-54"/>
      <use xlink:href="#DejaVuSans-61" x="44.583984"/>
      <use xlink:href="#DejaVuSans-72" x="105.863281"/>
      <use xlink:href="#DejaVuSans-67" x="145.226562"/>
      <use xlink:href="#DejaVuSans-65" x="208.703125"/>
      <use xlink:href="#DejaVuSans-74" x="270.226562"/>
     </g>
    </g>
   </g>
   <g id="line2d_26">
    <path d="M 223.913477 385.478125 
L 223.913477 219.088125 
" clip-path="url(#pcfb3f04c64)" style="fill: none; stroke: #ffa500; stroke-width: 2; stroke-linecap: square"/>
   </g>
   <g id="patch_8">
    <path d="M 52.160938 385.478125 
L 52.160938 219.088125 
" style="fill: none; stroke: #000000; stroke-width: 0.8; stroke-linejoin: miter; stroke-linecap: square"/>
   </g>
   <g id="patch_9">
    <path d="M 269.064915 385.478125 
L 269.064915 219.088125 
" style="fill: none; stroke: #000000; stroke-width: 0.8; stroke-linejoin: miter; stroke-linecap: square"/>
   </g>
   <g id="patch_10">
    <path d="M 52.160938 385.478125 
L 269.064915 385.478125 
" style="fill: none; stroke: #000000; stroke-width: 0.8; stroke-linejoin: miter; stroke-linecap: square"/>
   </g>
   <g id="patch_11">
    <path d="M 52.160938 219.088125 
L 269.064915 219.088125 
" style="fill: none; stroke: #000000; stroke-width: 0.8; stroke-linejoin: miter; stroke-linecap: square"/>
   </g>
   <g id="text_23">
    <!-- Posterior predictive distribution -->
    <g transform="translate(66.225426 213.088125) scale(0.12 -0.12)">
     <defs>
      <path id="DejaVuSans-50" d="M 1259 4147 
L 1259 2394 
L 2053 2394 
Q 2494 2394 2734 2622 
Q 2975 2850 2975 3272 
Q 2975 3691 2734 3919 
Q 2494 4147 2053 4147 
L 1259 4147 
z
M 628 4666 
L 2053 4666 
Q 2838 4666 3239 4311 
Q 3641 3956 3641 3272 
Q 3641 2581 3239 2228 
Q 2838 1875 2053 1875 
L 1259 1875 
L 1259 0 
L 628 0 
L 628 4666 
z
" transform="scale(0.015625)"/>
      <path id="DejaVuSans-6f" d="M 1959 3097 
Q 1497 3097 1228 2736 
Q 959 2375 959 1747 
Q 959 1119 1226 758 
Q 1494 397 1959 397 
Q 2419 397 2687 759 
Q 2956 1122 2956 1747 
Q 2956 2369 2687 2733 
Q 2419 3097 1959 3097 
z
M 1959 3584 
Q 2709 3584 3137 3096 
Q 3566 2609 3566 1747 
Q 3566 888 3137 398 
Q 2709 -91 1959 -91 
Q 1206 -91 779 398 
Q 353 888 353 1747 
Q 353 2609 779 3096 
Q 1206 3584 1959 3584 
z
" transform="scale(0.015625)"/>
      <path id="DejaVuSans-73" d="M 2834 3397 
L 2834 2853 
Q 2591 2978 2328 3040 
Q 2066 3103 1784 3103 
Q 1356 3103 1142 2972 
Q 928 2841 928 2578 
Q 928 2378 1081 2264 
Q 1234 2150 1697 2047 
L 1894 2003 
Q 2506 1872 2764 1633 
Q 3022 1394 3022 966 
Q 3022 478 2636 193 
Q 2250 -91 1575 -91 
Q 1294 -91 989 -36 
Q 684 19 347 128 
L 347 722 
Q 666 556 975 473 
Q 1284 391 1588 391 
Q 1994 391 2212 530 
Q 2431 669 2431 922 
Q 2431 1156 2273 1281 
Q 2116 1406 1581 1522 
L 1381 1569 
Q 847 1681 609 1914 
Q 372 2147 372 2553 
Q 372 3047 722 3315 
Q 1072 3584 1716 3584 
Q 2034 3584 2315 3537 
Q 2597 3491 2834 3397 
z
" transform="scale(0.015625)"/>
      <path id="DejaVuSans-69" d="M 603 3500 
L 1178 3500 
L 1178 0 
L 603 0 
L 603 3500 
z
M 603 4863 
L 1178 4863 
L 1178 4134 
L 603 4134 
L 603 4863 
z
" transform="scale(0.015625)"/>
      <path id="DejaVuSans-70" d="M 1159 525 
L 1159 -1331 
L 581 -1331 
L 581 3500 
L 1159 3500 
L 1159 2969 
Q 1341 3281 1617 3432 
Q 1894 3584 2278 3584 
Q 2916 3584 3314 3078 
Q 3713 2572 3713 1747 
Q 3713 922 3314 415 
Q 2916 -91 2278 -91 
Q 1894 -91 1617 61 
Q 1341 213 1159 525 
z
M 3116 1747 
Q 3116 2381 2855 2742 
Q 2594 3103 2138 3103 
Q 1681 3103 1420 2742 
Q 1159 2381 1159 1747 
Q 1159 1113 1420 752 
Q 1681 391 2138 391 
Q 2594 391 2855 752 
Q 3116 1113 3116 1747 
z
" transform="scale(0.015625)"/>
      <path id="DejaVuSans-64" d="M 2906 2969 
L 2906 4863 
L 3481 4863 
L 3481 0 
L 2906 0 
L 2906 525 
Q 2725 213 2448 61 
Q 2172 -91 1784 -91 
Q 1150 -91 751 415 
Q 353 922 353 1747 
Q 353 2572 751 3078 
Q 1150 3584 1784 3584 
Q 2172 3584 2448 3432 
Q 2725 3281 2906 2969 
z
M 947 1747 
Q 947 1113 1208 752 
Q 1469 391 1925 391 
Q 2381 391 2643 752 
Q 2906 1113 2906 1747 
Q 2906 2381 2643 2742 
Q 2381 3103 1925 3103 
Q 1469 3103 1208 2742 
Q 947 2381 947 1747 
z
" transform="scale(0.015625)"/>
      <path id="DejaVuSans-76" d="M 191 3500 
L 800 3500 
L 1894 563 
L 2988 3500 
L 3597 3500 
L 2284 0 
L 1503 0 
L 191 3500 
z
" transform="scale(0.015625)"/>
      <path id="DejaVuSans-62" d="M 3116 1747 
Q 3116 2381 2855 2742 
Q 2594 3103 2138 3103 
Q 1681 3103 1420 2742 
Q 1159 2381 1159 1747 
Q 1159 1113 1420 752 
Q 1681 391 2138 391 
Q 2594 391 2855 752 
Q 3116 1113 3116 1747 
z
M 1159 2969 
Q 1341 3281 1617 3432 
Q 1894 3584 2278 3584 
Q 2916 3584 3314 3078 
Q 3713 2572 3713 1747 
Q 3713 922 3314 415 
Q 2916 -91 2278 -91 
Q 1894 -91 1617 61 
Q 1341 213 1159 525 
L 1159 0 
L 581 0 
L 581 4863 
L 1159 4863 
L 1159 2969 
z
" transform="scale(0.015625)"/>
      <path id="DejaVuSans-6e" d="M 3513 2113 
L 3513 0 
L 2938 0 
L 2938 2094 
Q 2938 2591 2744 2837 
Q 2550 3084 2163 3084 
Q 1697 3084 1428 2787 
Q 1159 2491 1159 1978 
L 1159 0 
L 581 0 
L 581 3500 
L 1159 3500 
L 1159 2956 
Q 1366 3272 1645 3428 
Q 1925 3584 2291 3584 
Q 2894 3584 3203 3211 
Q 3513 2838 3513 2113 
z
" transform="scale(0.015625)"/>
     </defs>
     <use xlink:href="#DejaVuSans-50"/>
     <use xlink:href="#DejaVuSans-6f" x="56.677734"/>
     <use xlink:href="#DejaVuSans-73" x="117.859375"/>
     <use xlink:href="#DejaVuSans-74" x="169.958984"/>
     <use xlink:href="#DejaVuSans-65" x="209.167969"/>
     <use xlink:href="#DejaVuSans-72" x="270.691406"/>
     <use xlink:href="#DejaVuSans-69" x="311.804688"/>
     <use xlink:href="#DejaVuSans-6f" x="339.587891"/>
     <use xlink:href="#DejaVuSans-72" x="400.769531"/>
     <use xlink:href="#DejaVuSans-20" x="441.882812"/>
     <use xlink:href="#DejaVuSans-70" x="473.669922"/>
     <use xlink:href="#DejaVuSans-72" x="537.146484"/>
     <use xlink:href="#DejaVuSans-65" x="576.009766"/>
     <use xlink:href="#DejaVuSans-64" x="637.533203"/>
     <use xlink:href="#DejaVuSans-69" x="701.009766"/>
     <use xlink:href="#DejaVuSans-63" x="728.792969"/>
     <use xlink:href="#DejaVuSans-74" x="783.773438"/>
     <use xlink:href="#DejaVuSans-69" x="822.982422"/>
     <use xlink:href="#DejaVuSans-76" x="850.765625"/>
     <use xlink:href="#DejaVuSans-65" x="909.945312"/>
     <use xlink:href="#DejaVuSans-20" x="971.46875"/>
     <use xlink:href="#DejaVuSans-64" x="1003.255859"/>
     <use xlink:href="#DejaVuSans-69" x="1066.732422"/>
     <use xlink:href="#DejaVuSans-73" x="1094.515625"/>
     <use xlink:href="#DejaVuSans-74" x="1146.615234"/>
     <use xlink:href="#DejaVuSans-72" x="1185.824219"/>
     <use xlink:href="#DejaVuSans-69" x="1226.9375"/>
     <use xlink:href="#DejaVuSans-62" x="1254.720703"/>
     <use xlink:href="#DejaVuSans-75" x="1318.197266"/>
     <use xlink:href="#DejaVuSans-74" x="1381.576172"/>
     <use xlink:href="#DejaVuSans-69" x="1420.785156"/>
     <use xlink:href="#DejaVuSans-6f" x="1448.568359"/>
     <use xlink:href="#DejaVuSans-6e" x="1509.75"/>
    </g>
   </g>
  </g>
 </g>
 <defs>
  <clipPath id="p21491be98b">
   <rect x="52.160938" y="22.318125" width="216.903977" height="166.39"/>
  </clipPath>
  <clipPath id="pcfb3f04c64">
   <rect x="52.160938" y="219.088125" width="216.903977" height="166.39"/>
  </clipPath>
 </defs>
</svg>
